<?xml version="1.0" encoding="utf-8"?>
<!-- Generator: Adobe Illustrator 27.1.1, SVG Export Plug-In . SVG Version: 6.00 Build 0)  -->
<svg version="1.1" id="Layer_1" xmlns="http://www.w3.org/2000/svg" xmlns:xlink="http://www.w3.org/1999/xlink" x="0px" y="0px"
	 viewBox="0 0 512 512" style="enable-background:new 0 0 512 512;" xml:space="preserve">
<style type="text/css">
	.st0{fill:#717184;}
</style>
<path class="st0" d="M439.5,507.7c-58.7,0-115.7-11.5-169.4-34.2c-51.8-21.9-98.4-53.3-138.3-93.3c-40-40-71.4-86.5-93.3-138.3
	C15.8,188.2,4.3,131.2,4.3,72.5c0-20.3,13.7-38.2,33.3-43.6l84.1-22.9c21.9-6,44.9,5.3,53.6,26.3l38.2,91.8
	c7.7,18.6,2.5,39.6-13.1,52.4l-42.8,35c30.6,61.9,81.1,112.4,143,143l35.1-42.9c12.5-15.4,34-20.8,52.4-13.1l91.8,38.2
	c20.9,8.7,32.2,31.7,26.2,53.6l-22.9,84.1C477.8,494,459.8,507.7,439.5,507.7z M133.7,18.3c-2.7,0-5.5,0.4-8.2,1.1L41.3,42.3
	c-13.6,3.7-23,16.1-23,30.1c0,232.3,189,421.2,421.2,421.2c14,0,26.4-9.5,30.1-23.1l22.9-84.1c4.1-15.1-3.7-31-18.1-37l-91.8-38.2
	c-12.7-5.3-27.5-1.6-36.1,9l-42.1,51.4l-4.9-2.3c-68.7-32.5-124.4-88.2-156.9-156.9l-2.3-4.9l51.4-42c10.8-8.8,14.4-23.3,9.1-36.1
	l-38.2-91.9C157.6,25.6,146,18.3,133.7,18.3z"/>
</svg>
