<svg width="53" height="53" viewBox="0 0 53 53" fill="none" xmlns="http://www.w3.org/2000/svg">
<g id="Group 351">
<circle id="Background" cx="26.3889" cy="26.3889" r="26.3889" fill="#E1F7FF"/>
<path id="Vector" d="M28.9381 20.1145C29.9149 20.3105 30.8125 20.8019 31.5162 21.5257C32.2199 22.2495 32.6976 23.1729 32.8881 24.1776M28.9381 16C30.9674 16.2319 32.8597 17.1666 34.3044 18.6508C35.749 20.1349 36.6601 22.0802 36.8881 24.1673M35.8881 32.3757V35.4616C35.8892 35.748 35.8322 36.0316 35.7206 36.2941C35.6091 36.5566 35.4454 36.7922 35.2402 36.9859C35.035 37.1795 34.7927 37.327 34.5289 37.4187C34.265 37.5105 33.9855 37.5446 33.7081 37.5188C30.631 37.1749 27.6751 36.0933 25.0781 34.3609C22.6619 32.7817 20.6135 30.6745 19.0781 28.1892C17.3881 25.5057 16.3364 22.4505 16.0081 19.271C15.9831 18.9866 16.016 18.6999 16.1046 18.4292C16.1932 18.1586 16.3357 17.9098 16.5229 17.6989C16.7101 17.488 16.9379 17.3194 17.1919 17.204C17.4459 17.0886 17.7205 17.0289 17.9981 17.0286H20.9981C21.4834 17.0237 21.9539 17.2005 22.3219 17.526C22.6898 17.8515 22.9302 18.3035 22.9981 18.7979C23.1247 19.7854 23.3596 20.7551 23.6981 21.6883C23.8327 22.0565 23.8618 22.4566 23.782 22.8413C23.7023 23.2259 23.517 23.579 23.2481 23.8587L21.9781 25.165C23.4017 27.7403 25.4746 29.8725 27.9781 31.3368L29.2481 30.0304C29.52 29.7539 29.8633 29.5633 30.2372 29.4812C30.6112 29.3992 31.0002 29.4292 31.3581 29.5676C32.2654 29.9158 33.2081 30.1573 34.1681 30.2876C34.6539 30.3581 35.0975 30.6098 35.4146 30.9948C35.7318 31.3798 35.9003 31.8712 35.8881 32.3757Z" stroke="#0FAFE9" stroke-width="2" stroke-linecap="round" stroke-linejoin="round"/>
</g>
</svg>
